# xmcd
#
# Track frame offsets: 
#        150
#        11157
#        24475
#        35345
#        44963
#        55949
#        67286
#        78943
#        89602
#        101479
#        112113
#        124962
#        135034
#        145931
#        156894
#
# Disc length: 2231 seconds
#
# Revision: 1
# Processed by: cddbd v1.5.2PL0 Copyright (c) Steve Scherf et al.
# Submitted via: ExactAudioCopy v0.99pb3
#
DISCID=d508b50f
DTITLE=Various Artist - Right Track - The Best Of Okeh Northern Soul
DYEAR=2007
DGENRE=Soul
TTITLE0=Billy Butler and The Enchanters - Right Track
TTITLE1=Sandi Sheldon - You're Gonna Make Me Love You
TTITLE2=Larry Williams and Johnny 'Guitar' Watson - Too Late
TTITLE3=Major Lance - You Don't Want Me No More
TTITLE4=The Triumphs - I'm Coming To Your Rescue
TTITLE5=The Artistics - This Heart Of Mine
TTITLE6=The Carstairs - He Who Picks A Rose
TTITLE7=Major Lance - Ain't No Soul (Left In These Old Shoes)
TTITLE8=Larry Williams and Johnny 'Guitar' Watson - A Quitter Never Wins
TTITLE9=Little Richard - I Don't Want To Discuss It
TTITLE10=Walter Jackson - It's An Uphill Climb (To The Bottom)
TTITLE11=The Vibrations - Gonan Get Along Without You Now
TTITLE12=Seven Souls - I Still Love You
TTITLE13=The Opals - You're Gonna Be Sorry
TTITLE14=The Vibrations - End Up Crying
EXTD=
EXTT0=
EXTT1=
EXTT2=
EXTT3=
EXTT4=
EXTT5=
EXTT6=
EXTT7=
EXTT8=
EXTT9=
EXTT10=
EXTT11=
EXTT12=
EXTT13=
EXTT14=
PLAYORDER=
